<svg xmlns="http://www.w3.org/2000/svg" xmlns:xlink="http://www.w3.org/1999/xlink" width="368" zoomAndPan="magnify" viewBox="0 0 276 293.999989" height="392" preserveAspectRatio="xMidYMid meet" version="1.0"><defs><filter x="0%" y="0%" width="100%" height="100%" id="694db59bc2"><feColorMatrix values="0 0 0 0 1 0 0 0 0 1 0 0 0 0 1 0 0 0 1 0" color-interpolation-filters="sRGB"/></filter><g/><clipPath id="14cd1411f5"><path d="M 0 0 L 275.703125 0 L 275.703125 294 L 0 294 Z M 0 0 " clip-rule="nonzero"/></clipPath><clipPath id="21ae676aa8"><path d="M 10.5 0 L 265.203125 0 C 271 0 275.703125 4.699219 275.703125 10.5 L 275.703125 283.050781 C 275.703125 288.851562 271 293.550781 265.203125 293.550781 L 10.5 293.550781 C 4.699219 293.550781 0 288.851562 0 283.050781 L 0 10.5 C 0 4.699219 4.699219 0 10.5 0 Z M 10.5 0 " clip-rule="nonzero"/></clipPath><clipPath id="276d8942d4"><path d="M 0 0 L 275.703125 0 L 275.703125 293.761719 L 0 293.761719 Z M 0 0 " clip-rule="nonzero"/></clipPath><clipPath id="88a1dcb365"><path d="M 10.5 0 L 265.203125 0 C 271 0 275.703125 4.699219 275.703125 10.5 L 275.703125 283.050781 C 275.703125 288.851562 271 293.550781 265.203125 293.550781 L 10.5 293.550781 C 4.699219 293.550781 0 288.851562 0 283.050781 L 0 10.5 C 0 4.699219 4.699219 0 10.5 0 Z M 10.5 0 " clip-rule="nonzero"/></clipPath><clipPath id="d3d74ce353"><rect x="0" width="276" y="0" height="294"/></clipPath><clipPath id="cd8531019d"><path d="M 7.945312 6.808594 L 268.945312 6.808594 L 268.945312 284.167969 L 7.945312 284.167969 Z M 7.945312 6.808594 " clip-rule="nonzero"/></clipPath><clipPath id="8adb2877d8"><path d="M 18.445312 6.808594 L 258.703125 6.808594 C 264.5 6.808594 269.203125 11.511719 269.203125 17.308594 L 269.203125 273.539062 C 269.203125 279.339844 264.5 284.039062 258.703125 284.039062 L 18.445312 284.039062 C 12.644531 284.039062 7.945312 279.339844 7.945312 273.539062 L 7.945312 17.308594 C 7.945312 11.511719 12.644531 6.808594 18.445312 6.808594 Z M 18.445312 6.808594 " clip-rule="nonzero"/></clipPath><clipPath id="95c9b5a457"><path d="M 22.441406 69.40625 L 95.992188 69.40625 L 95.992188 114.777344 L 22.441406 114.777344 Z M 22.441406 69.40625 " clip-rule="nonzero"/></clipPath><clipPath id="6e81476b1e"><path d="M 32.941406 69.40625 L 85.425781 69.40625 C 91.226562 69.40625 95.925781 74.109375 95.925781 79.90625 L 95.925781 104.277344 C 95.925781 110.074219 91.226562 114.777344 85.425781 114.777344 L 32.941406 114.777344 C 27.144531 114.777344 22.441406 110.074219 22.441406 104.277344 L 22.441406 79.90625 C 22.441406 74.109375 27.144531 69.40625 32.941406 69.40625 Z M 32.941406 69.40625 " clip-rule="nonzero"/></clipPath><clipPath id="5718cd2463"><path d="M 0.441406 0.40625 L 73.992188 0.40625 L 73.992188 45.777344 L 0.441406 45.777344 Z M 0.441406 0.40625 " clip-rule="nonzero"/></clipPath><clipPath id="348d61a8db"><path d="M 10.941406 0.40625 L 63.425781 0.40625 C 69.226562 0.40625 73.925781 5.109375 73.925781 10.90625 L 73.925781 35.277344 C 73.925781 41.074219 69.226562 45.777344 63.425781 45.777344 L 10.941406 45.777344 C 5.144531 45.777344 0.441406 41.074219 0.441406 35.277344 L 0.441406 10.90625 C 0.441406 5.109375 5.144531 0.40625 10.941406 0.40625 Z M 10.941406 0.40625 " clip-rule="nonzero"/></clipPath><clipPath id="8135cb3562"><rect x="0" width="74" y="0" height="46"/></clipPath><clipPath id="63d6f91f51"><path d="M 103.859375 69.40625 L 177.410156 69.40625 L 177.410156 114.777344 L 103.859375 114.777344 Z M 103.859375 69.40625 " clip-rule="nonzero"/></clipPath><clipPath id="51612a6588"><path d="M 114.359375 69.40625 L 166.84375 69.40625 C 172.644531 69.40625 177.34375 74.109375 177.34375 79.90625 L 177.34375 104.277344 C 177.34375 110.074219 172.644531 114.777344 166.84375 114.777344 L 114.359375 114.777344 C 108.5625 114.777344 103.859375 110.074219 103.859375 104.277344 L 103.859375 79.90625 C 103.859375 74.109375 108.5625 69.40625 114.359375 69.40625 Z M 114.359375 69.40625 " clip-rule="nonzero"/></clipPath><clipPath id="1f5ed558c0"><path d="M 0.859375 0.40625 L 74.359375 0.40625 L 74.359375 45.777344 L 0.859375 45.777344 Z M 0.859375 0.40625 " clip-rule="nonzero"/></clipPath><clipPath id="02174b14d2"><path d="M 11.359375 0.40625 L 63.84375 0.40625 C 69.644531 0.40625 74.34375 5.109375 74.34375 10.90625 L 74.34375 35.277344 C 74.34375 41.074219 69.644531 45.777344 63.84375 45.777344 L 11.359375 45.777344 C 5.5625 45.777344 0.859375 41.074219 0.859375 35.277344 L 0.859375 10.90625 C 0.859375 5.109375 5.5625 0.40625 11.359375 0.40625 Z M 11.359375 0.40625 " clip-rule="nonzero"/></clipPath><clipPath id="aad307183e"><rect x="0" width="75" y="0" height="46"/></clipPath><clipPath id="be8b2df1ad"><path d="M 183.25 69.40625 L 256.800781 69.40625 L 256.800781 114.777344 L 183.25 114.777344 Z M 183.25 69.40625 " clip-rule="nonzero"/></clipPath><clipPath id="4280c8c910"><path d="M 193.75 69.40625 L 246.234375 69.40625 C 252.035156 69.40625 256.734375 74.109375 256.734375 79.90625 L 256.734375 104.277344 C 256.734375 110.074219 252.035156 114.777344 246.234375 114.777344 L 193.75 114.777344 C 187.953125 114.777344 183.25 110.074219 183.25 104.277344 L 183.25 79.90625 C 183.25 74.109375 187.953125 69.40625 193.75 69.40625 Z M 193.75 69.40625 " clip-rule="nonzero"/></clipPath><clipPath id="f0069de29b"><path d="M 0.25 0.40625 L 73.800781 0.40625 L 73.800781 45.777344 L 0.25 45.777344 Z M 0.25 0.40625 " clip-rule="nonzero"/></clipPath><clipPath id="5544f75065"><path d="M 10.75 0.40625 L 63.234375 0.40625 C 69.035156 0.40625 73.734375 5.109375 73.734375 10.90625 L 73.734375 35.277344 C 73.734375 41.074219 69.035156 45.777344 63.234375 45.777344 L 10.75 45.777344 C 4.953125 45.777344 0.25 41.074219 0.25 35.277344 L 0.25 10.90625 C 0.25 5.109375 4.953125 0.40625 10.75 0.40625 Z M 10.75 0.40625 " clip-rule="nonzero"/></clipPath><clipPath id="328a68db36"><rect x="0" width="74" y="0" height="46"/></clipPath><clipPath id="d02646929c"><path d="M 22.441406 122.292969 L 95.992188 122.292969 L 95.992188 167.660156 L 22.441406 167.660156 Z M 22.441406 122.292969 " clip-rule="nonzero"/></clipPath><clipPath id="e6ce3ae47a"><path d="M 32.941406 122.292969 L 85.425781 122.292969 C 91.226562 122.292969 95.925781 126.992188 95.925781 132.792969 L 95.925781 157.160156 C 95.925781 162.960938 91.226562 167.660156 85.425781 167.660156 L 32.941406 167.660156 C 27.144531 167.660156 22.441406 162.960938 22.441406 157.160156 L 22.441406 132.792969 C 22.441406 126.992188 27.144531 122.292969 32.941406 122.292969 Z M 32.941406 122.292969 " clip-rule="nonzero"/></clipPath><clipPath id="17481413a6"><path d="M 0.441406 0.292969 L 73.992188 0.292969 L 73.992188 45.660156 L 0.441406 45.660156 Z M 0.441406 0.292969 " clip-rule="nonzero"/></clipPath><clipPath id="e14a2eaf42"><path d="M 10.941406 0.292969 L 63.425781 0.292969 C 69.226562 0.292969 73.925781 4.992188 73.925781 10.792969 L 73.925781 35.160156 C 73.925781 40.960938 69.226562 45.660156 63.425781 45.660156 L 10.941406 45.660156 C 5.144531 45.660156 0.441406 40.960938 0.441406 35.160156 L 0.441406 10.792969 C 0.441406 4.992188 5.144531 0.292969 10.941406 0.292969 Z M 10.941406 0.292969 " clip-rule="nonzero"/></clipPath><clipPath id="583f50e431"><rect x="0" width="74" y="0" height="46"/></clipPath><clipPath id="cb2fbd9c5f"><path d="M 103.859375 122.292969 L 177.410156 122.292969 L 177.410156 167.660156 L 103.859375 167.660156 Z M 103.859375 122.292969 " clip-rule="nonzero"/></clipPath><clipPath id="2627267f64"><path d="M 114.359375 122.292969 L 166.84375 122.292969 C 172.644531 122.292969 177.34375 126.992188 177.34375 132.792969 L 177.34375 157.160156 C 177.34375 162.960938 172.644531 167.660156 166.84375 167.660156 L 114.359375 167.660156 C 108.5625 167.660156 103.859375 162.960938 103.859375 157.160156 L 103.859375 132.792969 C 103.859375 126.992188 108.5625 122.292969 114.359375 122.292969 Z M 114.359375 122.292969 " clip-rule="nonzero"/></clipPath><clipPath id="f153d22f5f"><path d="M 0.859375 0.292969 L 74.359375 0.292969 L 74.359375 45.660156 L 0.859375 45.660156 Z M 0.859375 0.292969 " clip-rule="nonzero"/></clipPath><clipPath id="8491f2cbd6"><path d="M 11.359375 0.292969 L 63.84375 0.292969 C 69.644531 0.292969 74.34375 4.992188 74.34375 10.792969 L 74.34375 35.160156 C 74.34375 40.960938 69.644531 45.660156 63.84375 45.660156 L 11.359375 45.660156 C 5.5625 45.660156 0.859375 40.960938 0.859375 35.160156 L 0.859375 10.792969 C 0.859375 4.992188 5.5625 0.292969 11.359375 0.292969 Z M 11.359375 0.292969 " clip-rule="nonzero"/></clipPath><clipPath id="75531e8347"><rect x="0" width="75" y="0" height="46"/></clipPath><clipPath id="ff3e795201"><path d="M 183.25 122.292969 L 256.800781 122.292969 L 256.800781 167.660156 L 183.25 167.660156 Z M 183.25 122.292969 " clip-rule="nonzero"/></clipPath><clipPath id="b92a753eca"><path d="M 193.75 122.292969 L 246.234375 122.292969 C 252.035156 122.292969 256.734375 126.992188 256.734375 132.792969 L 256.734375 157.160156 C 256.734375 162.960938 252.035156 167.660156 246.234375 167.660156 L 193.75 167.660156 C 187.953125 167.660156 183.25 162.960938 183.25 157.160156 L 183.25 132.792969 C 183.25 126.992188 187.953125 122.292969 193.75 122.292969 Z M 193.75 122.292969 " clip-rule="nonzero"/></clipPath><clipPath id="166aa9c552"><path d="M 0.25 0.292969 L 73.800781 0.292969 L 73.800781 45.660156 L 0.25 45.660156 Z M 0.25 0.292969 " clip-rule="nonzero"/></clipPath><clipPath id="5b1161fa6b"><path d="M 10.75 0.292969 L 63.234375 0.292969 C 69.035156 0.292969 73.734375 4.992188 73.734375 10.792969 L 73.734375 35.160156 C 73.734375 40.960938 69.035156 45.660156 63.234375 45.660156 L 10.75 45.660156 C 4.953125 45.660156 0.25 40.960938 0.25 35.160156 L 0.25 10.792969 C 0.25 4.992188 4.953125 0.292969 10.75 0.292969 Z M 10.75 0.292969 " clip-rule="nonzero"/></clipPath><clipPath id="ce4c27095f"><rect x="0" width="74" y="0" height="46"/></clipPath><clipPath id="cdc5f347b1"><path d="M 22.441406 175.347656 L 95.992188 175.347656 L 95.992188 220.714844 L 22.441406 220.714844 Z M 22.441406 175.347656 " clip-rule="nonzero"/></clipPath><clipPath id="21809ae542"><path d="M 32.941406 175.347656 L 85.425781 175.347656 C 91.226562 175.347656 95.925781 180.046875 95.925781 185.847656 L 95.925781 210.214844 C 95.925781 216.015625 91.226562 220.714844 85.425781 220.714844 L 32.941406 220.714844 C 27.144531 220.714844 22.441406 216.015625 22.441406 210.214844 L 22.441406 185.847656 C 22.441406 180.046875 27.144531 175.347656 32.941406 175.347656 Z M 32.941406 175.347656 " clip-rule="nonzero"/></clipPath><clipPath id="7181a705f6"><path d="M 0.441406 0.347656 L 73.992188 0.347656 L 73.992188 45.714844 L 0.441406 45.714844 Z M 0.441406 0.347656 " clip-rule="nonzero"/></clipPath><clipPath id="44eb713847"><path d="M 10.941406 0.347656 L 63.425781 0.347656 C 69.226562 0.347656 73.925781 5.046875 73.925781 10.847656 L 73.925781 35.214844 C 73.925781 41.015625 69.226562 45.714844 63.425781 45.714844 L 10.941406 45.714844 C 5.144531 45.714844 0.441406 41.015625 0.441406 35.214844 L 0.441406 10.847656 C 0.441406 5.046875 5.144531 0.347656 10.941406 0.347656 Z M 10.941406 0.347656 " clip-rule="nonzero"/></clipPath><clipPath id="622c774ce9"><rect x="0" width="74" y="0" height="46"/></clipPath><clipPath id="5857c4ff96"><path d="M 103.859375 175.347656 L 177.410156 175.347656 L 177.410156 220.714844 L 103.859375 220.714844 Z M 103.859375 175.347656 " clip-rule="nonzero"/></clipPath><clipPath id="f15360cc18"><path d="M 114.359375 175.347656 L 166.84375 175.347656 C 172.644531 175.347656 177.34375 180.046875 177.34375 185.847656 L 177.34375 210.214844 C 177.34375 216.015625 172.644531 220.714844 166.84375 220.714844 L 114.359375 220.714844 C 108.5625 220.714844 103.859375 216.015625 103.859375 210.214844 L 103.859375 185.847656 C 103.859375 180.046875 108.5625 175.347656 114.359375 175.347656 Z M 114.359375 175.347656 " clip-rule="nonzero"/></clipPath><clipPath id="02dec6da75"><path d="M 0.859375 0.347656 L 74.359375 0.347656 L 74.359375 45.714844 L 0.859375 45.714844 Z M 0.859375 0.347656 " clip-rule="nonzero"/></clipPath><clipPath id="5e6ce3aa29"><path d="M 11.359375 0.347656 L 63.84375 0.347656 C 69.644531 0.347656 74.34375 5.046875 74.34375 10.847656 L 74.34375 35.214844 C 74.34375 41.015625 69.644531 45.714844 63.84375 45.714844 L 11.359375 45.714844 C 5.5625 45.714844 0.859375 41.015625 0.859375 35.214844 L 0.859375 10.847656 C 0.859375 5.046875 5.5625 0.347656 11.359375 0.347656 Z M 11.359375 0.347656 " clip-rule="nonzero"/></clipPath><clipPath id="2e93dfcc7f"><rect x="0" width="75" y="0" height="46"/></clipPath><clipPath id="fe752f9584"><path d="M 183.25 175.347656 L 256.800781 175.347656 L 256.800781 220.714844 L 183.25 220.714844 Z M 183.25 175.347656 " clip-rule="nonzero"/></clipPath><clipPath id="d25510a47c"><path d="M 193.75 175.347656 L 246.234375 175.347656 C 252.035156 175.347656 256.734375 180.046875 256.734375 185.847656 L 256.734375 210.214844 C 256.734375 216.015625 252.035156 220.714844 246.234375 220.714844 L 193.75 220.714844 C 187.953125 220.714844 183.25 216.015625 183.25 210.214844 L 183.25 185.847656 C 183.25 180.046875 187.953125 175.347656 193.75 175.347656 Z M 193.75 175.347656 " clip-rule="nonzero"/></clipPath><clipPath id="5f49f55a52"><path d="M 0.25 0.347656 L 73.800781 0.347656 L 73.800781 45.714844 L 0.25 45.714844 Z M 0.25 0.347656 " clip-rule="nonzero"/></clipPath><clipPath id="db9e0464a4"><path d="M 10.75 0.347656 L 63.234375 0.347656 C 69.035156 0.347656 73.734375 5.046875 73.734375 10.847656 L 73.734375 35.214844 C 73.734375 41.015625 69.035156 45.714844 63.234375 45.714844 L 10.75 45.714844 C 4.953125 45.714844 0.25 41.015625 0.25 35.214844 L 0.25 10.847656 C 0.25 5.046875 4.953125 0.347656 10.75 0.347656 Z M 10.75 0.347656 " clip-rule="nonzero"/></clipPath><clipPath id="7c6698bd03"><rect x="0" width="74" y="0" height="46"/></clipPath><clipPath id="fbf519475c"><path d="M 183.25 16.539062 L 256.800781 16.539062 L 256.800781 61.90625 L 183.25 61.90625 Z M 183.25 16.539062 " clip-rule="nonzero"/></clipPath><clipPath id="ab0485d797"><path d="M 193.75 16.539062 L 246.234375 16.539062 C 252.035156 16.539062 256.734375 21.238281 256.734375 27.039062 L 256.734375 51.40625 C 256.734375 57.207031 252.035156 61.90625 246.234375 61.90625 L 193.75 61.90625 C 187.953125 61.90625 183.25 57.207031 183.25 51.40625 L 183.25 27.039062 C 183.25 21.238281 187.953125 16.539062 193.75 16.539062 Z M 193.75 16.539062 " clip-rule="nonzero"/></clipPath><clipPath id="8d13066162"><path d="M 0.25 0.539062 L 73.800781 0.539062 L 73.800781 45.90625 L 0.25 45.90625 Z M 0.25 0.539062 " clip-rule="nonzero"/></clipPath><clipPath id="21fbe9ba09"><path d="M 10.75 0.539062 L 63.234375 0.539062 C 69.035156 0.539062 73.734375 5.238281 73.734375 11.039062 L 73.734375 35.40625 C 73.734375 41.207031 69.035156 45.90625 63.234375 45.90625 L 10.75 45.90625 C 4.953125 45.90625 0.25 41.207031 0.25 35.40625 L 0.25 11.039062 C 0.25 5.238281 4.953125 0.539062 10.75 0.539062 Z M 10.75 0.539062 " clip-rule="nonzero"/></clipPath><clipPath id="f11382db37"><rect x="0" width="74" y="0" height="46"/></clipPath><clipPath id="573c395c8d"><path d="M 207.046875 27.3125 L 232 27.3125 L 232 51.3125 L 207.046875 51.3125 Z M 207.046875 27.3125 " clip-rule="nonzero"/></clipPath><clipPath id="d599165ada"><path d="M 207.046875 37.8125 L 207.046875 40.632812 C 207.046875 46.429688 211.75 51.132812 217.546875 51.132812 L 222.4375 51.132812 C 228.238281 51.132812 232.9375 46.429688 232.9375 40.632812 L 232.9375 37.8125 C 232.9375 32.015625 228.238281 27.3125 222.4375 27.3125 L 217.546875 27.3125 C 211.75 27.3125 207.046875 32.015625 207.046875 37.8125 Z M 207.046875 37.8125 " clip-rule="nonzero"/></clipPath><clipPath id="11ff00b971"><path d="M 209 27.3125 L 233 27.3125 L 233 51.3125 L 209 51.3125 Z M 209 27.3125 " clip-rule="nonzero"/></clipPath><clipPath id="a488269558"><path d="M 207.046875 37.8125 L 207.046875 40.632812 C 207.046875 46.429688 211.75 51.132812 217.546875 51.132812 L 222.4375 51.132812 C 228.238281 51.132812 232.9375 46.429688 232.9375 40.632812 L 232.9375 37.8125 C 232.9375 32.015625 228.238281 27.3125 222.4375 27.3125 L 217.546875 27.3125 C 211.75 27.3125 207.046875 32.015625 207.046875 37.8125 Z M 207.046875 37.8125 " clip-rule="nonzero"/></clipPath><clipPath id="505e0ef954"><path d="M 22.441406 228.398438 L 95.992188 228.398438 L 95.992188 273.769531 L 22.441406 273.769531 Z M 22.441406 228.398438 " clip-rule="nonzero"/></clipPath><clipPath id="ca90dc0d5d"><path d="M 32.941406 228.398438 L 85.425781 228.398438 C 91.226562 228.398438 95.925781 233.101562 95.925781 238.898438 L 95.925781 263.269531 C 95.925781 269.070312 91.226562 273.769531 85.425781 273.769531 L 32.941406 273.769531 C 27.144531 273.769531 22.441406 269.070312 22.441406 263.269531 L 22.441406 238.898438 C 22.441406 233.101562 27.144531 228.398438 32.941406 228.398438 Z M 32.941406 228.398438 " clip-rule="nonzero"/></clipPath><clipPath id="9f65982ea7"><path d="M 0.441406 0.398438 L 73.992188 0.398438 L 73.992188 45.769531 L 0.441406 45.769531 Z M 0.441406 0.398438 " clip-rule="nonzero"/></clipPath><clipPath id="aaff11dfe4"><path d="M 10.941406 0.398438 L 63.425781 0.398438 C 69.226562 0.398438 73.925781 5.101562 73.925781 10.898438 L 73.925781 35.269531 C 73.925781 41.070312 69.226562 45.769531 63.425781 45.769531 L 10.941406 45.769531 C 5.144531 45.769531 0.441406 41.070312 0.441406 35.269531 L 0.441406 10.898438 C 0.441406 5.101562 5.144531 0.398438 10.941406 0.398438 Z M 10.941406 0.398438 " clip-rule="nonzero"/></clipPath><clipPath id="c9ad720c95"><rect x="0" width="74" y="0" height="46"/></clipPath><clipPath id="74c0f73a4d"><path d="M 103.859375 228.398438 L 177.410156 228.398438 L 177.410156 273.769531 L 103.859375 273.769531 Z M 103.859375 228.398438 " clip-rule="nonzero"/></clipPath><clipPath id="78a7b53639"><path d="M 114.359375 228.398438 L 166.84375 228.398438 C 172.644531 228.398438 177.34375 233.101562 177.34375 238.898438 L 177.34375 263.269531 C 177.34375 269.070312 172.644531 273.769531 166.84375 273.769531 L 114.359375 273.769531 C 108.5625 273.769531 103.859375 269.070312 103.859375 263.269531 L 103.859375 238.898438 C 103.859375 233.101562 108.5625 228.398438 114.359375 228.398438 Z M 114.359375 228.398438 " clip-rule="nonzero"/></clipPath><clipPath id="8936cff7da"><path d="M 0.859375 0.398438 L 74.359375 0.398438 L 74.359375 45.769531 L 0.859375 45.769531 Z M 0.859375 0.398438 " clip-rule="nonzero"/></clipPath><clipPath id="229c415abf"><path d="M 11.359375 0.398438 L 63.84375 0.398438 C 69.644531 0.398438 74.34375 5.101562 74.34375 10.898438 L 74.34375 35.269531 C 74.34375 41.070312 69.644531 45.769531 63.84375 45.769531 L 11.359375 45.769531 C 5.5625 45.769531 0.859375 41.070312 0.859375 35.269531 L 0.859375 10.898438 C 0.859375 5.101562 5.5625 0.398438 11.359375 0.398438 Z M 11.359375 0.398438 " clip-rule="nonzero"/></clipPath><clipPath id="a9436f09d0"><rect x="0" width="75" y="0" height="46"/></clipPath><clipPath id="7ac3db0cc7"><path d="M 183.25 228.398438 L 256.800781 228.398438 L 256.800781 273.769531 L 183.25 273.769531 Z M 183.25 228.398438 " clip-rule="nonzero"/></clipPath><clipPath id="c8bdd01da0"><path d="M 193.75 228.398438 L 246.234375 228.398438 C 252.035156 228.398438 256.734375 233.101562 256.734375 238.898438 L 256.734375 263.269531 C 256.734375 269.070312 252.035156 273.769531 246.234375 273.769531 L 193.75 273.769531 C 187.953125 273.769531 183.25 269.070312 183.25 263.269531 L 183.25 238.898438 C 183.25 233.101562 187.953125 228.398438 193.75 228.398438 Z M 193.75 228.398438 " clip-rule="nonzero"/></clipPath><clipPath id="018f83863e"><path d="M 0.25 0.398438 L 73.800781 0.398438 L 73.800781 45.769531 L 0.25 45.769531 Z M 0.25 0.398438 " clip-rule="nonzero"/></clipPath><clipPath id="d5b680a92b"><path d="M 10.75 0.398438 L 63.234375 0.398438 C 69.035156 0.398438 73.734375 5.101562 73.734375 10.898438 L 73.734375 35.269531 C 73.734375 41.070312 69.035156 45.769531 63.234375 45.769531 L 10.75 45.769531 C 4.953125 45.769531 0.25 41.070312 0.25 35.269531 L 0.25 10.898438 C 0.25 5.101562 4.953125 0.398438 10.75 0.398438 Z M 10.75 0.398438 " clip-rule="nonzero"/></clipPath><clipPath id="6cd6e8a6bd"><rect x="0" width="74" y="0" height="46"/></clipPath><clipPath id="b6a76faafa"><path d="M 39.207031 239.464844 L 74.457031 239.464844 L 74.457031 262.714844 L 39.207031 262.714844 Z M 39.207031 239.464844 " clip-rule="nonzero"/></clipPath><clipPath id="b0277236a7"><path d="M 204.210938 236.339844 L 235.710938 236.339844 L 235.710938 263 L 204.210938 263 Z M 204.210938 236.339844 " clip-rule="nonzero"/></clipPath><clipPath id="114e9863c1"><path d="M 204.210938 246.839844 L 204.210938 252.472656 C 204.210938 258.273438 208.910156 262.972656 214.710938 262.972656 L 225.277344 262.972656 C 231.078125 262.972656 235.777344 258.273438 235.777344 252.472656 L 235.777344 246.839844 C 235.777344 241.039062 231.078125 236.339844 225.277344 236.339844 L 214.710938 236.339844 C 208.910156 236.339844 204.210938 241.039062 204.210938 246.839844 Z M 204.210938 246.839844 " clip-rule="nonzero"/></clipPath><mask id="54df84d3bf"><g filter="url(#694db59bc2)"><rect x="-27.6" width="331.2" fill="#000000" y="-29.399999" height="352.799986" fill-opacity="0.66"/></g></mask><clipPath id="d279def719"><path d="M 0.441406 0.539062 L 145 0.539062 L 145 45.90625 L 0.441406 45.90625 Z M 0.441406 0.539062 " clip-rule="nonzero"/></clipPath><clipPath id="b05aba1e19"><path d="M 10.941406 0.539062 L 134.453125 0.539062 C 140.253906 0.539062 144.953125 5.238281 144.953125 11.039062 L 144.953125 35.40625 C 144.953125 41.207031 140.253906 45.90625 134.453125 45.90625 L 10.941406 45.90625 C 5.144531 45.90625 0.441406 41.207031 0.441406 35.40625 L 0.441406 11.039062 C 0.441406 5.238281 5.144531 0.539062 10.941406 0.539062 Z M 10.941406 0.539062 " clip-rule="nonzero"/></clipPath><clipPath id="3acc625642"><path d="M 0.441406 0.539062 L 145 0.539062 L 145 45.90625 L 0.441406 45.90625 Z M 0.441406 0.539062 " clip-rule="nonzero"/></clipPath><clipPath id="2d74041ee0"><path d="M 10.941406 0.539062 L 134.453125 0.539062 C 140.253906 0.539062 144.953125 5.238281 144.953125 11.039062 L 144.953125 35.40625 C 144.953125 41.207031 140.253906 45.90625 134.453125 45.90625 L 10.941406 45.90625 C 5.144531 45.90625 0.441406 41.207031 0.441406 35.40625 L 0.441406 11.039062 C 0.441406 5.238281 5.144531 0.539062 10.941406 0.539062 Z M 10.941406 0.539062 " clip-rule="nonzero"/></clipPath><clipPath id="d88bd7e7cd"><rect x="0" width="145" y="0" height="46"/></clipPath><clipPath id="33dbe918dd"><rect x="0" width="146" y="0" height="46"/></clipPath></defs><g clip-path="url(#14cd1411f5)"><g clip-path="url(#21ae676aa8)"><g transform="matrix(1, 0, 0, 1, 0, 0)"><g clip-path="url(#d3d74ce353)"><g clip-path="url(#276d8942d4)"><g clip-path="url(#88a1dcb365)"><path fill="#b09e92" d="M 0 0 L 275.703125 0 L 275.703125 294.011719 L 0 294.011719 Z M 0 0 " fill-opacity="1" fill-rule="nonzero"/></g></g></g></g></g></g><g clip-path="url(#cd8531019d)"><g clip-path="url(#8adb2877d8)"><path stroke-linecap="butt" transform="matrix(0.75, 0, 0, 0.75, 7.943808, 6.809851)" fill="none" stroke-linejoin="miter" d="M 14.002007 -0.00167651 L 334.345804 -0.00167651 C 342.074972 -0.00167651 348.345806 6.269158 348.345806 13.998326 L 348.345806 355.639 C 348.345806 363.373376 342.074972 369.639002 334.345804 369.639002 L 14.002007 369.639002 C 6.267631 369.639002 0.00200542 363.373376 0.00200542 355.639 L 0.00200542 13.998326 C 0.00200542 6.269158 6.267631 -0.00167651 14.002007 -0.00167651 Z M 14.002007 -0.00167651 " stroke="#ffffff" stroke-width="8" stroke-opacity="1" stroke-miterlimit="4"/></g></g><g clip-path="url(#95c9b5a457)"><g clip-path="url(#6e81476b1e)"><g transform="matrix(1, 0, 0, 1, 22, 69)"><g clip-path="url(#8135cb3562)"><g clip-path="url(#5718cd2463)"><g clip-path="url(#348d61a8db)"><path fill="#ffffff" d="M 0.441406 0.40625 L 73.992188 0.40625 L 73.992188 45.777344 L 0.441406 45.777344 Z M 0.441406 0.40625 " fill-opacity="1" fill-rule="nonzero"/></g></g></g></g></g></g><g fill="#000000" fill-opacity="1"><g transform="translate(55.418213, 98.65719)"><g><path d="M 0.546875 -11.421875 L 0.546875 -14.59375 L 6.078125 -14.59375 L 6.078125 0 L 2.515625 0 L 2.515625 -11.421875 Z M 0.546875 -11.421875 "/></g></g></g><g clip-path="url(#63d6f91f51)"><g clip-path="url(#51612a6588)"><g transform="matrix(1, 0, 0, 1, 103, 69)"><g clip-path="url(#aad307183e)"><g clip-path="url(#1f5ed558c0)"><g clip-path="url(#02174b14d2)"><path fill="#ffffff" d="M 0.859375 0.40625 L 74.410156 0.40625 L 74.410156 45.777344 L 0.859375 45.777344 Z M 0.859375 0.40625 " fill-opacity="1" fill-rule="nonzero"/></g></g></g></g></g></g><g fill="#000000" fill-opacity="1"><g transform="translate(134.880097, 98.65719)"><g><path d="M 0.78125 -2.734375 C 1.226562 -3.097656 1.4375 -3.265625 1.40625 -3.234375 C 2.707031 -4.316406 3.734375 -5.203125 4.484375 -5.890625 C 5.242188 -6.585938 5.882812 -7.316406 6.40625 -8.078125 C 6.925781 -8.835938 7.1875 -9.578125 7.1875 -10.296875 C 7.1875 -10.847656 7.054688 -11.273438 6.796875 -11.578125 C 6.546875 -11.890625 6.164062 -12.046875 5.65625 -12.046875 C 5.15625 -12.046875 4.757812 -11.851562 4.46875 -11.46875 C 4.1875 -11.09375 4.046875 -10.554688 4.046875 -9.859375 L 0.734375 -9.859375 C 0.765625 -10.992188 1.007812 -11.941406 1.46875 -12.703125 C 1.925781 -13.460938 2.53125 -14.019531 3.28125 -14.375 C 4.039062 -14.738281 4.878906 -14.921875 5.796875 -14.921875 C 7.390625 -14.921875 8.585938 -14.515625 9.390625 -13.703125 C 10.191406 -12.890625 10.59375 -11.828125 10.59375 -10.515625 C 10.59375 -9.085938 10.109375 -7.765625 9.140625 -6.546875 C 8.171875 -5.328125 6.929688 -4.140625 5.421875 -2.984375 L 10.8125 -2.984375 L 10.8125 -0.203125 L 0.78125 -0.203125 Z M 0.78125 -2.734375 "/></g></g></g><g clip-path="url(#be8b2df1ad)"><g clip-path="url(#4280c8c910)"><g transform="matrix(1, 0, 0, 1, 183, 69)"><g clip-path="url(#328a68db36)"><g clip-path="url(#f0069de29b)"><g clip-path="url(#5544f75065)"><path fill="#ffffff" d="M 0.25 0.40625 L 73.800781 0.40625 L 73.800781 45.777344 L 0.25 45.777344 Z M 0.25 0.40625 " fill-opacity="1" fill-rule="nonzero"/></g></g></g></g></g></g><g fill="#000000" fill-opacity="1"><g transform="translate(213.931306, 98.65719)"><g><path d="M 1.015625 -10.484375 C 1.066406 -11.910156 1.53125 -13.007812 2.40625 -13.78125 C 3.289062 -14.550781 4.488281 -14.9375 6 -14.9375 C 7 -14.9375 7.851562 -14.765625 8.5625 -14.421875 C 9.28125 -14.078125 9.820312 -13.601562 10.1875 -13 C 10.550781 -12.394531 10.734375 -11.722656 10.734375 -10.984375 C 10.734375 -10.097656 10.515625 -9.378906 10.078125 -8.828125 C 9.640625 -8.273438 9.128906 -7.898438 8.546875 -7.703125 L 8.546875 -7.625 C 9.304688 -7.363281 9.90625 -6.941406 10.34375 -6.359375 C 10.78125 -5.773438 11 -5.019531 11 -4.09375 C 11 -3.269531 10.804688 -2.539062 10.421875 -1.90625 C 10.046875 -1.269531 9.492188 -0.769531 8.765625 -0.40625 C 8.046875 -0.0507812 7.1875 0.125 6.1875 0.125 C 4.582031 0.125 3.300781 -0.265625 2.34375 -1.046875 C 1.394531 -1.835938 0.894531 -3.03125 0.84375 -4.625 L 4.15625 -4.625 C 4.175781 -4.03125 4.34375 -3.5625 4.65625 -3.21875 C 4.976562 -2.882812 5.445312 -2.71875 6.0625 -2.71875 C 6.582031 -2.71875 6.984375 -2.867188 7.265625 -3.171875 C 7.554688 -3.472656 7.703125 -3.867188 7.703125 -4.359375 C 7.703125 -4.992188 7.5 -5.457031 7.09375 -5.75 C 6.6875 -6.039062 6.035156 -6.1875 5.140625 -6.1875 L 4.5 -6.1875 L 4.5 -8.953125 L 5.140625 -8.953125 C 5.816406 -8.953125 6.363281 -9.066406 6.78125 -9.296875 C 7.207031 -9.535156 7.421875 -9.957031 7.421875 -10.5625 C 7.421875 -11.039062 7.285156 -11.410156 7.015625 -11.671875 C 6.753906 -11.941406 6.390625 -12.078125 5.921875 -12.078125 C 5.410156 -12.078125 5.03125 -11.921875 4.78125 -11.609375 C 4.539062 -11.304688 4.398438 -10.929688 4.359375 -10.484375 Z M 1.015625 -10.484375 "/></g></g></g><g clip-path="url(#d02646929c)"><g clip-path="url(#e6ce3ae47a)"><g transform="matrix(1, 0, 0, 1, 22, 122)"><g clip-path="url(#583f50e431)"><g clip-path="url(#17481413a6)"><g clip-path="url(#e14a2eaf42)"><path fill="#ffffff" d="M 0.441406 0.292969 L 73.992188 0.292969 L 73.992188 45.660156 L 0.441406 45.660156 Z M 0.441406 0.292969 " fill-opacity="1" fill-rule="nonzero"/></g></g></g></g></g></g><g fill="#000000" fill-opacity="1"><g transform="translate(52.406495, 151.541222)"><g><path d="M 0.984375 -2.59375 L 0.984375 -5.359375 L 7.296875 -14.40625 L 11.125 -14.40625 L 11.125 -5.5625 L 12.765625 -5.5625 L 12.765625 -2.59375 L 11.125 -2.59375 L 11.125 0 L 7.703125 0 L 7.703125 -2.59375 Z M 7.9375 -10.640625 L 4.578125 -5.5625 L 7.9375 -5.5625 Z M 7.9375 -10.640625 "/></g></g></g><g clip-path="url(#cb2fbd9c5f)"><g clip-path="url(#2627267f64)"><g transform="matrix(1, 0, 0, 1, 103, 122)"><g clip-path="url(#75531e8347)"><g clip-path="url(#f153d22f5f)"><g clip-path="url(#8491f2cbd6)"><path fill="#ffffff" d="M 0.859375 0.292969 L 74.410156 0.292969 L 74.410156 45.660156 L 0.859375 45.660156 Z M 0.859375 0.292969 " fill-opacity="1" fill-rule="nonzero"/></g></g></g></g></g></g><g fill="#000000" fill-opacity="1"><g transform="translate(134.094941, 151.541222)"><g><path d="M 11.1875 -11.625 L 4.9375 -11.625 L 4.9375 -8.859375 C 5.207031 -9.148438 5.582031 -9.390625 6.0625 -9.578125 C 6.539062 -9.765625 7.0625 -9.859375 7.625 -9.859375 C 8.625 -9.859375 9.453125 -9.628906 10.109375 -9.171875 C 10.765625 -8.722656 11.242188 -8.140625 11.546875 -7.421875 C 11.859375 -6.703125 12.015625 -5.921875 12.015625 -5.078125 C 12.015625 -3.515625 11.570312 -2.273438 10.6875 -1.359375 C 9.8125 -0.453125 8.578125 0 6.984375 0 C 5.910156 0 4.976562 -0.179688 4.1875 -0.546875 C 3.40625 -0.910156 2.800781 -1.421875 2.375 -2.078125 C 1.945312 -2.734375 1.71875 -3.488281 1.6875 -4.34375 L 5.015625 -4.34375 C 5.097656 -3.925781 5.289062 -3.582031 5.59375 -3.3125 C 5.90625 -3.039062 6.328125 -2.90625 6.859375 -2.90625 C 7.484375 -2.90625 7.945312 -3.101562 8.25 -3.5 C 8.5625 -3.894531 8.71875 -4.425781 8.71875 -5.09375 C 8.71875 -5.75 8.554688 -6.25 8.234375 -6.59375 C 7.921875 -6.945312 7.457031 -7.125 6.84375 -7.125 C 6.382812 -7.125 6.007812 -7.007812 5.71875 -6.78125 C 5.425781 -6.5625 5.234375 -6.273438 5.140625 -5.921875 L 1.84375 -5.921875 L 1.84375 -14.625 L 11.1875 -14.625 Z M 11.1875 -11.625 "/></g></g></g><g clip-path="url(#ff3e795201)"><g clip-path="url(#b92a753eca)"><g transform="matrix(1, 0, 0, 1, 183, 122)"><g clip-path="url(#ce4c27095f)"><g clip-path="url(#166aa9c552)"><g clip-path="url(#5b1161fa6b)"><path fill="#ffffff" d="M 0.25 0.292969 L 73.800781 0.292969 L 73.800781 45.660156 L 0.25 45.660156 Z M 0.25 0.292969 " fill-opacity="1" fill-rule="nonzero"/></g></g></g></g></g></g><g fill="#000000" fill-opacity="1"><g transform="translate(213.6149, 151.541222)"><g><path d="M 8.125 -10.65625 C 8.007812 -11.15625 7.816406 -11.523438 7.546875 -11.765625 C 7.285156 -12.015625 6.910156 -12.140625 6.421875 -12.140625 C 5.660156 -12.140625 5.113281 -11.804688 4.78125 -11.140625 C 4.445312 -10.484375 4.273438 -9.441406 4.265625 -8.015625 C 4.554688 -8.484375 4.976562 -8.847656 5.53125 -9.109375 C 6.082031 -9.378906 6.691406 -9.515625 7.359375 -9.515625 C 8.660156 -9.515625 9.707031 -9.101562 10.5 -8.28125 C 11.300781 -7.457031 11.703125 -6.300781 11.703125 -4.8125 C 11.703125 -3.84375 11.503906 -2.988281 11.109375 -2.25 C 10.710938 -1.519531 10.140625 -0.945312 9.390625 -0.53125 C 8.640625 -0.125 7.75 0.078125 6.71875 0.078125 C 4.664062 0.078125 3.238281 -0.5625 2.4375 -1.84375 C 1.632812 -3.132812 1.234375 -4.988281 1.234375 -7.40625 C 1.234375 -9.9375 1.65625 -11.816406 2.5 -13.046875 C 3.351562 -14.285156 4.710938 -14.90625 6.578125 -14.90625 C 7.578125 -14.90625 8.421875 -14.707031 9.109375 -14.3125 C 9.796875 -13.914062 10.316406 -13.394531 10.671875 -12.75 C 11.023438 -12.113281 11.234375 -11.414062 11.296875 -10.65625 Z M 6.546875 -6.8125 C 5.972656 -6.8125 5.492188 -6.640625 5.109375 -6.296875 C 4.734375 -5.960938 4.546875 -5.484375 4.546875 -4.859375 C 4.546875 -4.222656 4.71875 -3.722656 5.0625 -3.359375 C 5.414062 -2.992188 5.921875 -2.8125 6.578125 -2.8125 C 7.160156 -2.8125 7.625 -2.988281 7.96875 -3.34375 C 8.3125 -3.695312 8.484375 -4.179688 8.484375 -4.796875 C 8.484375 -5.421875 8.316406 -5.910156 7.984375 -6.265625 C 7.648438 -6.628906 7.171875 -6.8125 6.546875 -6.8125 Z M 6.546875 -6.8125 "/></g></g></g><g clip-path="url(#cdc5f347b1)"><g clip-path="url(#21809ae542)"><g transform="matrix(1, 0, 0, 1, 22, 175)"><g clip-path="url(#622c774ce9)"><g clip-path="url(#7181a705f6)"><g clip-path="url(#44eb713847)"><path fill="#ffffff" d="M 0.441406 0.347656 L 73.992188 0.347656 L 73.992188 45.714844 L 0.441406 45.714844 Z M 0.441406 0.347656 " fill-opacity="1" fill-rule="nonzero"/></g></g></g></g></g></g><g fill="#000000" fill-opacity="1"><g transform="translate(53.824463, 204.595779)"><g><path d="M 10.21875 -12.046875 L 5.203125 0 L 1.703125 0 L 6.78125 -11.65625 L 0.5625 -11.65625 L 0.5625 -14.578125 L 10.21875 -14.578125 Z M 10.21875 -12.046875 "/></g></g></g><g clip-path="url(#5857c4ff96)"><g clip-path="url(#f15360cc18)"><g transform="matrix(1, 0, 0, 1, 103, 175)"><g clip-path="url(#2e93dfcc7f)"><g clip-path="url(#02dec6da75)"><g clip-path="url(#5e6ce3aa29)"><path fill="#ffffff" d="M 0.859375 0.347656 L 74.410156 0.347656 L 74.410156 45.714844 L 0.859375 45.714844 Z M 0.859375 0.347656 " fill-opacity="1" fill-rule="nonzero"/></g></g></g></g></g></g><g fill="#000000" fill-opacity="1"><g transform="translate(134.118378, 204.595779)"><g><path d="M 3.296875 -7.84375 C 2.046875 -8.507812 1.421875 -9.554688 1.421875 -10.984375 C 1.421875 -11.703125 1.609375 -12.359375 1.984375 -12.953125 C 2.359375 -13.546875 2.921875 -14.019531 3.671875 -14.375 C 4.429688 -14.726562 5.367188 -14.90625 6.484375 -14.90625 C 7.585938 -14.90625 8.515625 -14.726562 9.265625 -14.375 C 10.023438 -14.019531 10.585938 -13.546875 10.953125 -12.953125 C 11.328125 -12.359375 11.515625 -11.703125 11.515625 -10.984375 C 11.515625 -10.265625 11.34375 -9.632812 11 -9.09375 C 10.664062 -8.5625 10.210938 -8.144531 9.640625 -7.84375 C 10.359375 -7.488281 10.910156 -7.007812 11.296875 -6.40625 C 11.679688 -5.800781 11.875 -5.09375 11.875 -4.28125 C 11.875 -3.332031 11.632812 -2.515625 11.15625 -1.828125 C 10.675781 -1.140625 10.023438 -0.613281 9.203125 -0.25 C 8.390625 0.101562 7.484375 0.28125 6.484375 0.28125 C 5.484375 0.28125 4.570312 0.101562 3.75 -0.25 C 2.925781 -0.613281 2.273438 -1.140625 1.796875 -1.828125 C 1.316406 -2.515625 1.078125 -3.332031 1.078125 -4.28125 C 1.078125 -5.101562 1.269531 -5.816406 1.65625 -6.421875 C 2.039062 -7.035156 2.585938 -7.507812 3.296875 -7.84375 Z M 8.203125 -10.453125 C 8.203125 -11.003906 8.046875 -11.429688 7.734375 -11.734375 C 7.421875 -12.035156 7.003906 -12.1875 6.484375 -12.1875 C 5.960938 -12.1875 5.546875 -12.03125 5.234375 -11.71875 C 4.921875 -11.414062 4.765625 -10.988281 4.765625 -10.4375 C 4.765625 -9.914062 4.921875 -9.503906 5.234375 -9.203125 C 5.554688 -8.910156 5.972656 -8.765625 6.484375 -8.765625 C 6.984375 -8.765625 7.394531 -8.914062 7.71875 -9.21875 C 8.039062 -9.53125 8.203125 -9.941406 8.203125 -10.453125 Z M 6.484375 -6.359375 C 5.859375 -6.359375 5.347656 -6.1875 4.953125 -5.84375 C 4.566406 -5.507812 4.375 -5.039062 4.375 -4.4375 C 4.375 -3.875 4.5625 -3.410156 4.9375 -3.046875 C 5.320312 -2.691406 5.835938 -2.515625 6.484375 -2.515625 C 7.117188 -2.515625 7.617188 -2.691406 7.984375 -3.046875 C 8.359375 -3.410156 8.546875 -3.875 8.546875 -4.4375 C 8.546875 -5.019531 8.351562 -5.484375 7.96875 -5.828125 C 7.59375 -6.179688 7.097656 -6.359375 6.484375 -6.359375 Z M 6.484375 -6.359375 "/></g></g></g><g clip-path="url(#fe752f9584)"><g clip-path="url(#d25510a47c)"><g transform="matrix(1, 0, 0, 1, 183, 175)"><g clip-path="url(#7c6698bd03)"><g clip-path="url(#5f49f55a52)"><g clip-path="url(#db9e0464a4)"><path fill="#ffffff" d="M 0.25 0.347656 L 73.800781 0.347656 L 73.800781 45.714844 L 0.25 45.714844 Z M 0.25 0.347656 " fill-opacity="1" fill-rule="nonzero"/></g></g></g></g></g></g><g fill="#000000" fill-opacity="1"><g transform="translate(213.837556, 204.595779)"><g><path d="M 4.578125 -4.28125 C 4.773438 -3.226562 5.390625 -2.703125 6.421875 -2.703125 C 7.128906 -2.703125 7.628906 -3.015625 7.921875 -3.640625 C 8.210938 -4.265625 8.359375 -5.285156 8.359375 -6.703125 C 8.066406 -6.285156 7.664062 -5.960938 7.15625 -5.734375 C 6.65625 -5.515625 6.085938 -5.40625 5.453125 -5.40625 C 4.609375 -5.40625 3.851562 -5.578125 3.1875 -5.921875 C 2.519531 -6.273438 1.992188 -6.800781 1.609375 -7.5 C 1.234375 -8.207031 1.046875 -9.0625 1.046875 -10.0625 C 1.046875 -11.050781 1.25 -11.910156 1.65625 -12.640625 C 2.0625 -13.367188 2.640625 -13.929688 3.390625 -14.328125 C 4.140625 -14.734375 5.03125 -14.9375 6.0625 -14.9375 C 8.03125 -14.9375 9.40625 -14.320312 10.1875 -13.09375 C 10.976562 -11.875 11.375 -10.070312 11.375 -7.6875 C 11.375 -5.945312 11.21875 -4.515625 10.90625 -3.390625 C 10.59375 -2.265625 10.066406 -1.40625 9.328125 -0.8125 C 8.585938 -0.226562 7.578125 0.0625 6.296875 0.0625 C 5.285156 0.0625 4.421875 -0.132812 3.703125 -0.53125 C 2.992188 -0.9375 2.445312 -1.460938 2.0625 -2.109375 C 1.6875 -2.765625 1.472656 -3.488281 1.421875 -4.28125 Z M 6.234375 -8.09375 C 6.796875 -8.09375 7.242188 -8.265625 7.578125 -8.609375 C 7.910156 -8.953125 8.078125 -9.414062 8.078125 -10 C 8.078125 -10.632812 7.90625 -11.125 7.5625 -11.46875 C 7.21875 -11.820312 6.75 -12 6.15625 -12 C 5.570312 -12 5.109375 -11.820312 4.765625 -11.46875 C 4.429688 -11.113281 4.265625 -10.628906 4.265625 -10.015625 C 4.265625 -9.441406 4.429688 -8.976562 4.765625 -8.625 C 5.109375 -8.269531 5.597656 -8.09375 6.234375 -8.09375 Z M 6.234375 -8.09375 "/></g></g></g><g clip-path="url(#fbf519475c)"><g clip-path="url(#ab0485d797)"><g transform="matrix(1, 0, 0, 1, 183, 16)"><g clip-path="url(#f11382db37)"><g clip-path="url(#8d13066162)"><g clip-path="url(#21fbe9ba09)"><path fill="#ffffff" d="M 0.25 0.539062 L 73.800781 0.539062 L 73.800781 45.90625 L 0.25 45.90625 Z M 0.25 0.539062 " fill-opacity="1" fill-rule="nonzero"/></g></g></g></g></g></g><g clip-path="url(#573c395c8d)"><g clip-path="url(#d599165ada)"><path fill="#cc3333" d="M 226.558594 51.3125 L 207.0625 31.933594 L 211.714844 27.3125 L 213.789062 27.3125 L 231.207031 46.6875 L 228.632812 51.3125 Z M 226.558594 51.3125 " fill-opacity="1" fill-rule="nonzero"/><path fill="#cc3333" d="M 211.714844 51.3125 L 207.0625 46.6875 L 226.558594 27.3125 L 228.632812 27.3125 L 231.207031 31.933594 L 213.789062 51.3125 Z M 211.714844 51.3125 " fill-opacity="1" fill-rule="nonzero"/></g></g><g clip-path="url(#11ff00b971)"><g clip-path="url(#a488269558)"><path fill="#e53535" d="M 209.140625 31.933594 L 213.789062 27.3125 L 233.285156 46.6875 L 228.632812 51.3125 Z M 209.140625 31.933594 " fill-opacity="1" fill-rule="nonzero"/><path fill="#e53535" d="M 209.140625 46.6875 L 228.632812 27.3125 L 233.285156 31.933594 L 213.789062 51.3125 Z M 209.140625 46.6875 " fill-opacity="1" fill-rule="nonzero"/></g></g><g clip-path="url(#505e0ef954)"><g clip-path="url(#ca90dc0d5d)"><g transform="matrix(1, 0, 0, 1, 22, 228)"><g clip-path="url(#c9ad720c95)"><g clip-path="url(#9f65982ea7)"><g clip-path="url(#aaff11dfe4)"><path fill="#ffffff" d="M 0.441406 0.398438 L 73.992188 0.398438 L 73.992188 45.769531 L 0.441406 45.769531 Z M 0.441406 0.398438 " fill-opacity="1" fill-rule="nonzero"/></g></g></g></g></g></g><g clip-path="url(#74c0f73a4d)"><g clip-path="url(#78a7b53639)"><g transform="matrix(1, 0, 0, 1, 103, 228)"><g clip-path="url(#a9436f09d0)"><g clip-path="url(#8936cff7da)"><g clip-path="url(#229c415abf)"><path fill="#ffffff" d="M 0.859375 0.398438 L 74.410156 0.398438 L 74.410156 45.769531 L 0.859375 45.769531 Z M 0.859375 0.398438 " fill-opacity="1" fill-rule="nonzero"/></g></g></g></g></g></g><g fill="#000000" fill-opacity="1"><g transform="translate(134.071503, 257.650321)"><g><path d="M 0.90625 -7.5 C 0.90625 -9.789062 1.347656 -11.597656 2.234375 -12.921875 C 3.117188 -14.242188 4.546875 -14.90625 6.515625 -14.90625 C 8.492188 -14.90625 9.925781 -14.242188 10.8125 -12.921875 C 11.695312 -11.597656 12.140625 -9.789062 12.140625 -7.5 C 12.140625 -5.175781 11.695312 -3.351562 10.8125 -2.03125 C 9.925781 -0.71875 8.492188 -0.0625 6.515625 -0.0625 C 4.546875 -0.0625 3.117188 -0.71875 2.234375 -2.03125 C 1.347656 -3.351562 0.90625 -5.175781 0.90625 -7.5 Z M 8.78125 -7.5 C 8.78125 -8.84375 8.632812 -9.878906 8.34375 -10.609375 C 8.050781 -11.335938 7.441406 -11.703125 6.515625 -11.703125 C 5.597656 -11.703125 4.992188 -11.335938 4.703125 -10.609375 C 4.410156 -9.878906 4.265625 -8.84375 4.265625 -7.5 C 4.265625 -6.59375 4.316406 -5.84375 4.421875 -5.25 C 4.523438 -4.65625 4.738281 -4.175781 5.0625 -3.8125 C 5.394531 -3.445312 5.878906 -3.265625 6.515625 -3.265625 C 7.160156 -3.265625 7.644531 -3.445312 7.96875 -3.8125 C 8.289062 -4.175781 8.503906 -4.65625 8.609375 -5.25 C 8.722656 -5.84375 8.78125 -6.59375 8.78125 -7.5 Z M 8.78125 -7.5 "/></g></g></g><g clip-path="url(#7ac3db0cc7)"><g clip-path="url(#c8bdd01da0)"><g transform="matrix(1, 0, 0, 1, 183, 228)"><g clip-path="url(#6cd6e8a6bd)"><g clip-path="url(#018f83863e)"><g clip-path="url(#d5b680a92b)"><path fill="#ffffff" d="M 0.25 0.398438 L 73.800781 0.398438 L 73.800781 45.769531 L 0.25 45.769531 Z M 0.25 0.398438 " fill-opacity="1" fill-rule="nonzero"/></g></g></g></g></g></g><g clip-path="url(#b6a76faafa)"><path fill="#000000" d="M 72.625 251.09375 L 72.625 243.746094 C 72.625 243.078125 72.351562 242.46875 71.90625 242.027344 C 71.460938 241.585938 70.847656 241.3125 70.175781 241.3125 L 50.460938 241.3125 C 50.066406 241.3125 49.707031 241.390625 49.394531 241.539062 C 49.078125 241.6875 48.792969 241.917969 48.546875 242.21875 L 41.347656 251.09375 L 48.546875 259.96875 C 48.792969 260.273438 49.078125 260.5 49.394531 260.648438 C 49.707031 260.796875 50.066406 260.875 50.460938 260.875 L 70.175781 260.875 C 70.847656 260.875 71.460938 260.601562 71.90625 260.160156 C 72.351562 259.71875 72.625 259.109375 72.625 258.441406 Z M 65.125 246.253906 C 65.480469 245.902344 66.054688 245.902344 66.410156 246.253906 C 66.765625 246.609375 66.765625 247.179688 66.410156 247.53125 L 62.816406 251.09375 L 66.410156 254.65625 C 66.765625 255.011719 66.765625 255.582031 66.410156 255.933594 C 66.054688 256.285156 65.476562 256.285156 65.125 255.933594 L 61.53125 252.371094 L 57.941406 255.933594 C 57.585938 256.285156 57.011719 256.285156 56.65625 255.933594 C 56.300781 255.578125 56.300781 255.007812 56.65625 254.65625 L 60.246094 251.09375 L 56.65625 247.53125 C 56.300781 247.179688 56.300781 246.609375 56.65625 246.253906 C 57.011719 245.902344 57.585938 245.902344 57.941406 246.253906 L 61.53125 249.816406 Z M 74.445312 243.746094 L 74.445312 258.441406 C 74.445312 259.609375 73.964844 260.667969 73.191406 261.4375 C 72.417969 262.203125 71.351562 262.679688 70.175781 262.679688 L 50.460938 262.679688 C 49.800781 262.679688 49.179688 262.539062 48.613281 262.269531 C 48.046875 262 47.550781 261.609375 47.132812 261.09375 L 39.484375 251.667969 C 39.214844 251.347656 39.199219 250.867188 39.476562 250.53125 L 47.132812 241.089844 C 47.546875 240.582031 48.046875 240.1875 48.613281 239.917969 C 49.179688 239.648438 49.800781 239.507812 50.460938 239.507812 L 70.175781 239.507812 C 71.351562 239.507812 72.417969 239.984375 73.191406 240.75 C 73.964844 241.515625 74.445312 242.578125 74.445312 243.746094 Z M 74.445312 243.746094 " fill-opacity="1" fill-rule="nonzero"/></g><g clip-path="url(#b0277236a7)"><g clip-path="url(#114e9863c1)"><path fill="#32b744" d="M 213.058594 255.097656 L 206.972656 249.6875 C 205.867188 248.699219 204.210938 250.058594 204.949219 251.371094 L 210.621094 261.421875 C 211.527344 263.09375 213.933594 263.347656 215.152344 261.882812 L 215.339844 261.660156 L 235.308594 238.507812 C 235.703125 238.058594 235.710938 237.371094 235.308594 236.90625 C 234.875 236.398438 234.117188 236.347656 233.621094 236.792969 Z M 213.058594 255.097656 " fill-opacity="1" fill-rule="nonzero"/></g></g><g mask="url(#54df84d3bf)"><g transform="matrix(1, 0, 0, 1, 22, 16)"><g clip-path="url(#33dbe918dd)"><g clip-path="url(#d279def719)"><g clip-path="url(#b05aba1e19)"><g transform="matrix(1, 0, 0, 1, 0.000000000000003553, 0.000000000000001776)"><g clip-path="url(#d88bd7e7cd)"><g clip-path="url(#3acc625642)"><g clip-path="url(#2d74041ee0)"><path fill="#ffffff" d="M 0.441406 0.539062 L 144.878906 0.539062 L 144.878906 45.90625 L 0.441406 45.90625 Z M 0.441406 0.539062 " fill-opacity="1" fill-rule="nonzero"/></g></g></g></g></g></g></g></g></g><g fill="#99877c" fill-opacity="1"><g transform="translate(43.352272, 45.157196)"><g><path d="M 0.5625 -5.578125 C 0.5625 -6.734375 0.796875 -7.742188 1.265625 -8.609375 C 1.742188 -9.484375 2.40625 -10.148438 3.25 -10.609375 C 4.09375 -11.078125 5.0625 -11.3125 6.15625 -11.3125 C 7.5625 -11.3125 8.734375 -10.945312 9.671875 -10.21875 C 10.609375 -9.488281 11.222656 -8.457031 11.515625 -7.125 L 7.875 -7.125 C 7.570312 -7.976562 6.976562 -8.40625 6.09375 -8.40625 C 5.46875 -8.40625 4.96875 -8.160156 4.59375 -7.671875 C 4.226562 -7.179688 4.046875 -6.484375 4.046875 -5.578125 C 4.046875 -4.671875 4.226562 -3.972656 4.59375 -3.484375 C 4.96875 -3.003906 5.46875 -2.765625 6.09375 -2.765625 C 6.976562 -2.765625 7.570312 -3.191406 7.875 -4.046875 L 11.515625 -4.046875 C 11.222656 -2.734375 10.601562 -1.703125 9.65625 -0.953125 C 8.707031 -0.210938 7.539062 0.15625 6.15625 0.15625 C 5.0625 0.15625 4.09375 -0.0703125 3.25 -0.53125 C 2.40625 -1 1.742188 -1.664062 1.265625 -2.53125 C 0.796875 -3.40625 0.5625 -4.421875 0.5625 -5.578125 Z M 0.5625 -5.578125 "/></g></g></g><g fill="#99877c" fill-opacity="1"><g transform="translate(55.447498, 45.157196)"><g><path d="M 2.953125 -12.3125 C 2.359375 -12.3125 1.867188 -12.488281 1.484375 -12.84375 C 1.109375 -13.195312 0.921875 -13.632812 0.921875 -14.15625 C 0.921875 -14.6875 1.109375 -15.128906 1.484375 -15.484375 C 1.867188 -15.835938 2.359375 -16.015625 2.953125 -16.015625 C 3.546875 -16.015625 4.03125 -15.835938 4.40625 -15.484375 C 4.789062 -15.128906 4.984375 -14.6875 4.984375 -14.15625 C 4.984375 -13.632812 4.789062 -13.195312 4.40625 -12.84375 C 4.03125 -12.488281 3.546875 -12.3125 2.953125 -12.3125 Z M 4.65625 -11.15625 L 4.65625 0 L 1.234375 0 L 1.234375 -11.15625 Z M 4.65625 -11.15625 "/></g></g></g><g fill="#99877c" fill-opacity="1"><g transform="translate(61.345176, 45.157196)"><g><path d="M 2.9375 -12.3125 C 2.34375 -12.3125 1.851562 -12.488281 1.46875 -12.84375 C 1.09375 -13.195312 0.90625 -13.632812 0.90625 -14.15625 C 0.90625 -14.6875 1.09375 -15.128906 1.46875 -15.484375 C 1.851562 -15.835938 2.34375 -16.015625 2.9375 -16.015625 C 3.519531 -16.015625 4 -15.835938 4.375 -15.484375 C 4.757812 -15.128906 4.953125 -14.6875 4.953125 -14.15625 C 4.953125 -13.632812 4.757812 -13.195312 4.375 -12.84375 C 4 -12.488281 3.519531 -12.3125 2.9375 -12.3125 Z M 4.65625 1.4375 C 4.65625 2.8125 4.304688 3.800781 3.609375 4.40625 C 2.921875 5.007812 1.957031 5.3125 0.71875 5.3125 L -0.625 5.3125 L -0.625 2.421875 L 0.203125 2.421875 C 0.578125 2.421875 0.84375 2.347656 1 2.203125 C 1.15625 2.054688 1.234375 1.816406 1.234375 1.484375 L 1.234375 -11.15625 L 4.65625 -11.15625 Z M 4.65625 1.4375 "/></g></g></g><g fill="#99877c" fill-opacity="1"><g transform="translate(67.222861, 45.157196)"><g><path d="M 6.84375 -8.3125 L 5 -8.3125 L 5 0 L 1.578125 0 L 1.578125 -8.3125 L 0.34375 -8.3125 L 0.34375 -11.15625 L 1.578125 -11.15625 L 1.578125 -11.484375 C 1.578125 -12.859375 1.96875 -13.898438 2.75 -14.609375 C 3.539062 -15.328125 4.695312 -15.6875 6.21875 -15.6875 C 6.46875 -15.6875 6.65625 -15.675781 6.78125 -15.65625 L 6.78125 -12.765625 C 6.125 -12.796875 5.660156 -12.695312 5.390625 -12.46875 C 5.128906 -12.25 5 -11.847656 5 -11.265625 L 5 -11.15625 L 6.84375 -11.15625 Z M 6.84375 -8.3125 "/></g></g></g><g fill="#99877c" fill-opacity="1"><g transform="translate(74.420027, 45.157196)"><g><path d="M 11.765625 -5.765625 C 11.765625 -5.441406 11.742188 -5.109375 11.703125 -4.765625 L 3.953125 -4.765625 C 4.015625 -4.066406 4.238281 -3.535156 4.625 -3.171875 C 5.019531 -2.804688 5.503906 -2.625 6.078125 -2.625 C 6.929688 -2.625 7.523438 -2.984375 7.859375 -3.703125 L 11.5 -3.703125 C 11.3125 -2.960938 10.972656 -2.300781 10.484375 -1.71875 C 10.003906 -1.132812 9.394531 -0.675781 8.65625 -0.34375 C 7.925781 -0.0078125 7.109375 0.15625 6.203125 0.15625 C 5.109375 0.15625 4.132812 -0.0703125 3.28125 -0.53125 C 2.425781 -1 1.757812 -1.664062 1.28125 -2.53125 C 0.800781 -3.40625 0.5625 -4.421875 0.5625 -5.578125 C 0.5625 -6.734375 0.796875 -7.742188 1.265625 -8.609375 C 1.742188 -9.484375 2.410156 -10.148438 3.265625 -10.609375 C 4.117188 -11.078125 5.097656 -11.3125 6.203125 -11.3125 C 7.273438 -11.3125 8.234375 -11.082031 9.078125 -10.625 C 9.921875 -10.175781 10.578125 -9.53125 11.046875 -8.6875 C 11.523438 -7.851562 11.765625 -6.878906 11.765625 -5.765625 Z M 8.265625 -6.65625 C 8.265625 -7.25 8.0625 -7.71875 7.65625 -8.0625 C 7.257812 -8.40625 6.757812 -8.578125 6.15625 -8.578125 C 5.582031 -8.578125 5.097656 -8.410156 4.703125 -8.078125 C 4.316406 -7.742188 4.078125 -7.269531 3.984375 -6.65625 Z M 8.265625 -6.65625 "/></g></g></g><g fill="#99877c" fill-opacity="1"><g transform="translate(86.735173, 45.157196)"><g><path d="M 4.65625 -9.296875 C 5.0625 -9.910156 5.5625 -10.394531 6.15625 -10.75 C 6.757812 -11.101562 7.425781 -11.28125 8.15625 -11.28125 L 8.15625 -7.65625 L 7.21875 -7.65625 C 6.363281 -7.65625 5.722656 -7.472656 5.296875 -7.109375 C 4.867188 -6.742188 4.65625 -6.101562 4.65625 -5.1875 L 4.65625 0 L 1.234375 0 L 1.234375 -11.15625 L 4.65625 -11.15625 Z M 4.65625 -9.296875 "/></g></g></g><g fill="#99877c" fill-opacity="1"><g transform="translate(95.291794, 45.157196)"><g><path d="M 0.5625 -5.578125 C 0.5625 -6.734375 0.796875 -7.742188 1.265625 -8.609375 C 1.742188 -9.484375 2.40625 -10.148438 3.25 -10.609375 C 4.09375 -11.078125 5.0625 -11.3125 6.15625 -11.3125 C 7.5625 -11.3125 8.734375 -10.945312 9.671875 -10.21875 C 10.609375 -9.488281 11.222656 -8.457031 11.515625 -7.125 L 7.875 -7.125 C 7.570312 -7.976562 6.976562 -8.40625 6.09375 -8.40625 C 5.46875 -8.40625 4.96875 -8.160156 4.59375 -7.671875 C 4.226562 -7.179688 4.046875 -6.484375 4.046875 -5.578125 C 4.046875 -4.671875 4.226562 -3.972656 4.59375 -3.484375 C 4.96875 -3.003906 5.46875 -2.765625 6.09375 -2.765625 C 6.976562 -2.765625 7.570312 -3.191406 7.875 -4.046875 L 11.515625 -4.046875 C 11.222656 -2.734375 10.601562 -1.703125 9.65625 -0.953125 C 8.707031 -0.210938 7.539062 0.15625 6.15625 0.15625 C 5.0625 0.15625 4.09375 -0.0703125 3.25 -0.53125 C 2.40625 -1 1.742188 -1.664062 1.265625 -2.53125 C 0.796875 -3.40625 0.5625 -4.421875 0.5625 -5.578125 Z M 0.5625 -5.578125 "/></g></g></g><g fill="#99877c" fill-opacity="1"><g transform="translate(107.387019, 45.157196)"><g><path d="M 6.3125 0.15625 C 5.226562 0.15625 4.25 -0.0703125 3.375 -0.53125 C 2.5 -1 1.8125 -1.664062 1.3125 -2.53125 C 0.8125 -3.40625 0.5625 -4.421875 0.5625 -5.578125 C 0.5625 -6.722656 0.8125 -7.734375 1.3125 -8.609375 C 1.820312 -9.484375 2.515625 -10.148438 3.390625 -10.609375 C 4.273438 -11.078125 5.265625 -11.3125 6.359375 -11.3125 C 7.453125 -11.3125 8.4375 -11.078125 9.3125 -10.609375 C 10.195312 -10.148438 10.890625 -9.484375 11.390625 -8.609375 C 11.898438 -7.734375 12.15625 -6.722656 12.15625 -5.578125 C 12.15625 -4.429688 11.898438 -3.421875 11.390625 -2.546875 C 10.878906 -1.671875 10.175781 -1 9.28125 -0.53125 C 8.394531 -0.0703125 7.40625 0.15625 6.3125 0.15625 Z M 6.3125 -2.796875 C 6.96875 -2.796875 7.523438 -3.035156 7.984375 -3.515625 C 8.453125 -3.992188 8.6875 -4.679688 8.6875 -5.578125 C 8.6875 -6.472656 8.460938 -7.160156 8.015625 -7.640625 C 7.566406 -8.117188 7.015625 -8.359375 6.359375 -8.359375 C 5.691406 -8.359375 5.140625 -8.117188 4.703125 -7.640625 C 4.265625 -7.171875 4.046875 -6.484375 4.046875 -5.578125 C 4.046875 -4.679688 4.257812 -3.992188 4.6875 -3.515625 C 5.125 -3.035156 5.664062 -2.796875 6.3125 -2.796875 Z M 6.3125 -2.796875 "/></g></g></g><g fill="#99877c" fill-opacity="1"><g transform="translate(120.121992, 45.157196)"><g><path d="M 0.5625 -5.59375 C 0.5625 -6.738281 0.773438 -7.742188 1.203125 -8.609375 C 1.640625 -9.484375 2.226562 -10.148438 2.96875 -10.609375 C 3.71875 -11.078125 4.554688 -11.3125 5.484375 -11.3125 C 6.210938 -11.3125 6.878906 -11.160156 7.484375 -10.859375 C 8.097656 -10.554688 8.578125 -10.144531 8.921875 -9.625 L 8.921875 -14.796875 L 12.34375 -14.796875 L 12.34375 0 L 8.921875 0 L 8.921875 -1.59375 C 8.597656 -1.0625 8.140625 -0.632812 7.546875 -0.3125 C 6.953125 0 6.265625 0.15625 5.484375 0.15625 C 4.554688 0.15625 3.71875 -0.078125 2.96875 -0.546875 C 2.226562 -1.023438 1.640625 -1.695312 1.203125 -2.5625 C 0.773438 -3.4375 0.5625 -4.445312 0.5625 -5.59375 Z M 8.921875 -5.578125 C 8.921875 -6.429688 8.679688 -7.101562 8.203125 -7.59375 C 7.734375 -8.09375 7.160156 -8.34375 6.484375 -8.34375 C 5.796875 -8.34375 5.21875 -8.097656 4.75 -7.609375 C 4.28125 -7.117188 4.046875 -6.445312 4.046875 -5.59375 C 4.046875 -4.738281 4.28125 -4.0625 4.75 -3.5625 C 5.21875 -3.0625 5.796875 -2.8125 6.484375 -2.8125 C 7.160156 -2.8125 7.734375 -3.054688 8.203125 -3.546875 C 8.679688 -4.046875 8.921875 -4.722656 8.921875 -5.578125 Z M 8.921875 -5.578125 "/></g></g></g><g fill="#99877c" fill-opacity="1"><g transform="translate(133.69664, 45.157196)"><g><path d="M 11.765625 -5.765625 C 11.765625 -5.441406 11.742188 -5.109375 11.703125 -4.765625 L 3.953125 -4.765625 C 4.015625 -4.066406 4.238281 -3.535156 4.625 -3.171875 C 5.019531 -2.804688 5.503906 -2.625 6.078125 -2.625 C 6.929688 -2.625 7.523438 -2.984375 7.859375 -3.703125 L 11.5 -3.703125 C 11.3125 -2.960938 10.972656 -2.300781 10.484375 -1.71875 C 10.003906 -1.132812 9.394531 -0.675781 8.65625 -0.34375 C 7.925781 -0.0078125 7.109375 0.15625 6.203125 0.15625 C 5.109375 0.15625 4.132812 -0.0703125 3.28125 -0.53125 C 2.425781 -1 1.757812 -1.664062 1.28125 -2.53125 C 0.800781 -3.40625 0.5625 -4.421875 0.5625 -5.578125 C 0.5625 -6.734375 0.796875 -7.742188 1.265625 -8.609375 C 1.742188 -9.484375 2.410156 -10.148438 3.265625 -10.609375 C 4.117188 -11.078125 5.097656 -11.3125 6.203125 -11.3125 C 7.273438 -11.3125 8.234375 -11.082031 9.078125 -10.625 C 9.921875 -10.175781 10.578125 -9.53125 11.046875 -8.6875 C 11.523438 -7.851562 11.765625 -6.878906 11.765625 -5.765625 Z M 8.265625 -6.65625 C 8.265625 -7.25 8.0625 -7.71875 7.65625 -8.0625 C 7.257812 -8.40625 6.757812 -8.578125 6.15625 -8.578125 C 5.582031 -8.578125 5.097656 -8.410156 4.703125 -8.078125 C 4.316406 -7.742188 4.078125 -7.269531 3.984375 -6.65625 Z M 8.265625 -6.65625 "/></g></g></g></svg>